<?xml version="1.0" encoding="UTF-8"?>
<svg xmlns="http://www.w3.org/2000/svg" id="Layer_1" data-name="Layer 1" viewBox="0 0 24 24">
  <path d="M20.366,14.43c-.169-2.863-2.555-5.141-5.465-5.141-3.018,0-5.474,2.452-5.474,5.466,0,.116,.004,.232,.011,.346-1.529,.529-2.616,1.98-2.616,3.674,0,2.143,1.746,3.887,3.893,3.887h7.997c2.364,0,4.288-1.921,4.288-4.282,0-1.746-1.069-3.296-2.634-3.951Z" fill="rgb(179, 179, 179)"/>
  <path d="M14.901,7.289s.006,0,.009,0c-.121-.215-.239-.424-.36-.626l.734-.74c.583-.588,.579-1.538-.01-2.122-.587-.582-1.536-.58-2.121,.009l-.757,.764c-.424-.187-.926-.328-1.532-.413v-1.324c0-.829-.672-1.5-1.5-1.5s-1.5,.671-1.5,1.5v1.352c-.549,.092-1.042,.237-1.481,.437l-.807-.815c-.583-.59-1.534-.593-2.121-.01-.589,.583-.593,1.533-.01,2.121l.822,.83c-.202,.447-.348,.952-.44,1.513h-1.328c-.828,0-1.5,.671-1.5,1.5s.672,1.5,1.5,1.5h1.311c.085,.576,.226,1.091,.422,1.548l-.788,.795c-.583,.588-.579,1.538,.01,2.121,.292,.29,.674,.435,1.056,.435,.386,0,.772-.148,1.065-.444l.273-.265c.431-.631,.984-1.178,1.633-1.604,.448-3.692,3.604-6.562,7.419-6.562Z" fill="rgb(255, 166, 0)"/>
</svg>
